<?xml version="1.0" encoding="UTF-8"?>
<svg id="Layer_1" data-name="Layer 1" xmlns="http://www.w3.org/2000/svg" viewBox="0 0 120.25 120">
  <defs>
    <style>
      .cls-1 {
        fill: #ffe600;
      }

      .cls-2 {
        fill: #c4c8ce;
      }

      .cls-3 {
        fill: #282828;
      }
    </style>
  </defs>
  <path class="cls-2" d="m103.53,51.41c-.02-.1-.04-.19-.06-.28-3.67-16.9-16.98-30.21-33.88-33.88-.09-.02-.18-.04-.28-.06-8.44-1.84-6.52-11.74-9.18-11.74s-.74,9.91-9.18,11.74c-.1.02-.19.04-.28.06-16.9,3.67-30.21,16.98-33.88,33.88-.02.09-.04.18-.06.28-1.84,8.44-11.74,6.52-11.74,9.18s9.91.74,11.74,9.18c.02.1.04.19.06.28,3.67,16.9,16.98,30.21,33.88,33.88.09.02.18.04.28.06,8.44,1.84,6.52,11.74,9.18,11.74s.74-9.91,9.18-11.74c.1-.02.19-.04.28-.06,16.9-3.67,30.21-16.98,33.88-33.88.02-.09.04-.18.06-.28,1.84-8.44,11.74-6.52,11.74-9.18s-9.91-.74-11.74-9.18Zm-6.62,24.72c-2.01,4.75-4.89,9.02-8.56,12.69-3.67,3.67-7.94,6.55-12.69,8.56-4.92,2.08-10.15,3.14-15.54,3.14s-10.62-1.05-15.54-3.14c-4.75-2.01-9.02-4.89-12.69-8.56-3.67-3.67-6.55-7.94-8.56-12.69-2.08-4.92-3.14-10.15-3.14-15.54s1.05-10.62,3.14-15.54c2.01-4.75,4.89-9.02,8.56-12.69,3.67-3.67,7.94-6.55,12.69-8.56,4.92-2.08,10.15-3.14,15.54-3.14s10.62,1.05,15.54,3.14c4.75,2.01,9.02,4.89,12.69,8.56,3.67,3.67,6.55,7.94,8.56,12.69,2.08,4.92,3.14,10.15,3.14,15.54s-1.05,10.62-3.14,15.54Z"/>
  <g>
    <path class="cls-3" d="m60.12,25.14c-11.33,0-21.42,5.27-27.96,13.5,1.7,6.27-.9,14.91-7.53,18.27-.14,1.3-.22,2.61-.22,3.94,0,19.72,15.99,35.71,35.71,35.71,3.62,0,7.11-.54,10.4-1.54v-.02c-.19-3.88-.53-9.08-.7-11.52-7.26.73-16.34,3.2-21.81,5.16.19-2.71.4-5.42.61-8.14.53-.21,1.07-.41,1.62-.61,5.97-2.17,12.35-3.63,19-4.28-.14-1.88-.56-7.02-.69-8.37-6.33.76-13.87,2.46-19.2,4.77.25-2.76.5-5.53.77-8.29.5-.19,1.01-.38,1.52-.56,5.25-1.87,10.82-3.17,16.61-3.83.48-.05.96-.1,1.44-.15.26,2.62.51,5.24.76,7.86.26,2.8.51,5.6.75,8.4.23,2.63.44,5.25.64,7.87.28,3.65.54,7.29.77,10.93v.08c13.57-5.06,23.23-18.14,23.23-33.46,0-1.4-.08-2.79-.24-4.15-6.56-6.58-7.46-10.05-7.2-17.67-6.53-8.45-16.77-13.89-28.27-13.89Zm11.17,33.11c0-1.14-5-2.07-11.17-2.07s-11.17.93-11.17,2.07v-4.32c0-.6,1.37-1.14,3.56-1.51v-10.19l-1.24-1.08,8.16-3.68c-.22-.19-.36-.48-.36-.8,0-.58.47-1.06,1.06-1.06s1.06.47,1.06,1.06c0,.32-.14.6-.37.8l8.16,3.68-1.23,1.08v10.19c2.19.38,3.56.92,3.56,1.51v4.32Z"/>
    <path class="cls-3" d="m54.7,42.25v9.87c1.34-.14,2.86-.23,4.47-.25v-8.4l1.9-.51v8.91c1.61.03,3.13.11,4.47.25v-9.85c-1.61-.45-3.47-.71-5.44-.71s-3.8.25-5.4.7Z"/>
  </g>
  <path class="cls-1" d="m52.51,43.59l-20.13-5.22c-4.45,5.48-7.31,12.3-7.87,19.76l28-7.27v-7.27Z"/>
  <path class="cls-1" d="m67.74,50.84l27.99,7.27c-.57-7.45-3.42-14.25-7.85-19.73l-20.14,5.23v7.23Z"/>
</svg>
